<svg width="108" height="108" viewBox="0 0 108 108" fill="none" xmlns="http://www.w3.org/2000/svg">
<circle cx="54" cy="54" r="54" fill="#FFF3EC"/>
<g clip-path="url(#clip0_2_2)">
<path d="M41.6667 57.0833V57.1142" stroke="#D2723C" stroke-width="4.625" stroke-linecap="round" stroke-linejoin="round"/>
<path d="M54 69.4167V69.4475" stroke="#D2723C" stroke-width="4.625" stroke-linecap="round" stroke-linejoin="round"/>
<path d="M54 54V54.0308" stroke="#D2723C" stroke-width="4.625" stroke-linecap="round" stroke-linejoin="round"/>
<path d="M66.3333 60.1667V60.1975" stroke="#D2723C" stroke-width="4.625" stroke-linecap="round" stroke-linejoin="round"/>
<path d="M50.9167 41.6667V41.6975" stroke="#D2723C" stroke-width="4.625" stroke-linecap="round" stroke-linejoin="round"/>
<path d="M57.5397 27.7177L65.7629 31.1217C64.1331 33.2659 63.2501 35.8846 63.2486 38.5779C63.247 41.2712 64.1272 43.8909 65.7545 46.037C67.3819 48.183 69.667 49.7374 72.2608 50.4626C74.8546 51.1878 77.6145 51.0441 80.1189 50.0533L80.2823 50.4603C81.2211 52.7268 81.2211 55.2732 80.2823 57.5397C78.7499 59.9632 77.6985 61.8687 77.125 63.25C76.5422 64.656 75.8639 66.9315 75.09 70.0827C74.1505 72.3487 72.3493 74.1488 70.0827 75.0869C66.8513 75.8978 64.5727 76.5762 63.25 77.125C61.7854 77.7324 59.883 78.7838 57.5397 80.2823C55.2732 81.2211 52.7267 81.2211 50.4603 80.2823C47.9875 78.7314 46.0851 77.68 44.75 77.125C43.2977 76.5237 41.0192 75.8454 37.9173 75.09C35.6513 74.1505 33.8512 72.3493 32.9131 70.0827C32.096 66.839 31.4177 64.5635 30.875 63.25C30.2645 61.7731 29.21 59.8707 27.7177 57.5397C26.7789 55.2732 26.7789 52.7268 27.7177 50.4603C29.1977 48.1663 30.246 46.2639 30.875 44.75C31.4022 43.4766 32.0806 41.198 32.91 37.9173C33.8495 35.6513 35.6507 33.8512 37.9173 32.9131C41.0993 32.1237 43.3748 31.4454 44.75 30.875C46.1622 30.2892 48.0646 29.2377 50.4603 27.7177C52.7267 26.7789 55.2732 26.7789 57.5397 27.7177V27.7177Z" stroke="#D2723C" stroke-width="4.625" stroke-linecap="round" stroke-linejoin="round"/>
</g>
<defs>
<clipPath id="clip0_2_2">
<rect width="74" height="74" fill="white" transform="translate(17 17)"/>
</clipPath>
</defs>
</svg>
