<svg width="33" height="32" viewBox="0 0 33 32" fill="none" xmlns="http://www.w3.org/2000/svg">
<g clip-path="url(#clip0_6_59)">
<path d="M26.5 18.096L16.5 28L6.5 18.096C5.84041 17.4542 5.32086 16.6827 4.97406 15.8302C4.62727 14.9777 4.46075 14.0626 4.48498 13.1426C4.50922 12.2226 4.72368 11.3175 5.11488 10.4845C5.50607 9.65139 6.06551 8.90834 6.75798 8.30211C7.45045 7.69588 8.26094 7.23959 9.13842 6.96198C10.0159 6.68437 10.9413 6.59145 11.8565 6.68907C12.7716 6.78669 13.6567 7.07274 14.4558 7.52921C15.255 7.98568 15.951 8.60267 16.5 9.34133C17.0514 8.60803 17.7482 7.99643 18.5468 7.54481C19.3454 7.09319 20.2287 6.81127 21.1412 6.7167C22.0538 6.62212 22.9761 6.71693 23.8504 6.99519C24.7246 7.27345 25.532 7.72917 26.2221 8.33382C26.9121 8.93847 27.4699 9.67905 27.8606 10.5092C28.2512 11.3393 28.4663 12.2412 28.4924 13.1583C28.5185 14.0754 28.355 14.988 28.0122 15.839C27.6693 16.69 27.1545 17.4611 26.5 18.104" stroke="#191847" stroke-width="2" stroke-linecap="round" stroke-linejoin="round"/>
</g>
<defs>
<clipPath id="clip0_6_59">
<rect width="32" height="32" fill="white" transform="translate(0.5)"/>
</clipPath>
</defs>
</svg>
