<svg width="152" height="31" viewBox="0 0 152 31" fill="none" xmlns="http://www.w3.org/2000/svg">
<g clip-path="url(#clip0_1_87660)">
<path d="M9.2972 13.1056L15.2015 7.28145L21.1083 13.1104L24.5419 9.71965L15.2015 0.5L5.86121 9.71728L9.2972 13.1056Z" fill="#BEBEBE"/>
<path d="M-0.00109863 15.5005L3.43364 12.111L6.86837 15.5005L3.43364 18.89L-0.00109863 15.5005Z" fill="#BEBEBE"/>
<path d="M9.29712 17.8945L15.2015 23.721L21.1082 17.8921L24.5442 21.2781L24.5418 21.2804L15.2015 30.5001L5.86113 21.2852L5.85632 21.2804L9.29712 17.8945Z" fill="#BEBEBE"/>
<path d="M23.5288 15.5012L26.9635 12.1117L30.3983 15.5012L26.9635 18.8907L23.5288 15.5012Z" fill="#BEBEBE"/>
<path d="M18.6855 15.4988L15.2015 12.0583L12.6251 14.6008L12.3273 14.8923L11.7174 15.4941L11.7126 15.4988L11.7174 15.5059L15.2015 18.9417L18.6855 15.5012L18.6879 15.4988H18.6855Z" fill="#BEBEBE"/>
<path d="M35.7574 7.76953H43.2297C45.0834 7.76953 46.4856 8.24343 47.4365 9.19122C47.7947 9.54133 48.0771 9.95961 48.2666 10.4207C48.456 10.8818 48.5486 11.376 48.5386 11.8735V11.9185C48.545 12.326 48.4875 12.732 48.3681 13.1222C48.2617 13.4581 48.1073 13.7772 47.9095 14.07C47.7251 14.3461 47.502 14.595 47.2468 14.8093C46.9974 15.021 46.7243 15.2039 46.4328 15.3542C47.2735 15.6432 48.0296 16.1314 48.6346 16.7759C49.1693 17.3762 49.4366 18.2055 49.4366 19.2639V19.3089C49.4518 19.9699 49.306 20.6248 49.0116 21.2187C48.7263 21.7659 48.308 22.2348 47.7942 22.5835C47.2133 22.9678 46.5665 23.2448 45.8853 23.401C45.076 23.5904 44.2463 23.6819 43.4146 23.6735H35.7574V7.76953ZM42.4806 14.2003C43.127 14.2311 43.7704 14.0939 44.3462 13.8022C44.5708 13.6728 44.7541 13.4839 44.8755 13.2569C44.9969 13.0299 45.0514 12.774 45.0329 12.518V12.473C45.0448 12.2371 44.9963 12.0021 44.8918 11.7896C44.7873 11.5771 44.6302 11.3941 44.4351 11.2574C44.0365 10.9778 43.461 10.838 42.7087 10.838H39.2126V14.2003H42.4806ZM43.4242 20.6098C44.0683 20.6454 44.7094 20.4999 45.2731 20.1904C45.4926 20.0511 45.6704 19.8564 45.7878 19.6263C45.9052 19.3963 45.9579 19.1394 45.9406 18.8824V18.8374C45.9492 18.5931 45.897 18.3505 45.7886 18.1307C45.6802 17.9109 45.5189 17.7208 45.3187 17.5768C44.9057 17.2609 44.2382 17.1029 43.3162 17.1029H39.2126V20.6098H43.4242Z" fill="#BEBEBE"/>
<path d="M53.8883 7.76953H57.4347V23.6782H53.8883V7.76953Z" fill="#BEBEBE"/>
<path d="M62.8013 7.76953H66.0716L73.6303 17.5602V7.76953H77.1311V23.6782H74.1129L66.3069 13.5653V23.6782H62.8013V7.76953Z" fill="#BEBEBE"/>
<path d="M87.8688 7.65576H91.1343L98.0423 23.6782H94.3398L92.8655 20.1098H86.0487L84.5744 23.6782H80.9584L87.8688 7.65576ZM91.6001 17.02L89.4535 11.8592L87.3165 17.02H91.6001Z" fill="#BEBEBE"/>
<path d="M101.877 7.76953H105.147L112.701 17.5602V7.76953H116.202V23.6782H113.184L105.378 13.5653V23.6782H101.877V7.76953Z" fill="#BEBEBE"/>
<path d="M128.966 23.9578C127.836 23.9673 126.715 23.7513 125.672 23.3227C124.69 22.9224 123.798 22.3321 123.051 21.5866C122.303 20.8411 121.714 19.9555 121.319 18.9819C120.902 17.9635 120.69 16.8744 120.697 15.7759V15.7309C120.678 13.5658 121.522 11.4801 123.048 9.92333C123.798 9.16291 124.696 8.56004 125.689 8.15096C126.768 7.70967 127.928 7.48959 129.096 7.50409C129.787 7.499 130.477 7.5601 131.156 7.68654C131.737 7.79498 132.305 7.96253 132.851 8.1865C133.347 8.39232 133.818 8.65137 134.256 8.95895C134.683 9.25894 135.085 9.59339 135.456 9.95887L133.202 12.5274C132.626 12.0029 131.979 11.5588 131.281 11.2076C130.595 10.8838 129.842 10.7216 129.082 10.7337C128.449 10.727 127.822 10.8533 127.242 11.1041C126.663 11.355 126.144 11.7246 125.72 12.1886C125.3 12.6513 124.971 13.1873 124.75 13.769C124.519 14.3838 124.402 15.0349 124.407 15.6906V15.7357C124.404 16.3905 124.521 17.0405 124.75 17.6549C124.968 18.2388 125.294 18.7778 125.71 19.2449C126.131 19.7145 126.648 20.0896 127.228 20.3447C127.808 20.5998 128.437 20.729 129.072 20.7234C129.88 20.7486 130.683 20.5769 131.408 20.2235C132.099 19.8521 132.737 19.3932 133.307 18.8586L135.565 21.1097C135.166 21.5365 134.735 21.9326 134.275 22.2944C133.823 22.6469 133.333 22.9481 132.813 23.1924C132.259 23.4498 131.675 23.64 131.074 23.7587C130.38 23.896 129.674 23.9627 128.966 23.9578V23.9578Z" fill="#BEBEBE"/>
<path d="M139.75 7.76953H151.882V10.883H143.238V14.1103H150.85V17.2238H143.25V20.5647H152.003V23.6782H139.757L139.75 7.76953Z" fill="#BEBEBE"/>
</g>
<defs>
<clipPath id="clip0_1_87660">
<rect width="152" height="30" fill="white" transform="translate(0 0.5)"/>
</clipPath>
</defs>
</svg>
