<svg width="125" height="27" viewBox="0 0 125 27" fill="none" xmlns="http://www.w3.org/2000/svg">
<path d="M25.7152 16.6481C23.9713 23.594 16.9118 27.8397 9.88731 26.1022C2.91031 24.3661 -1.35442 17.3381 0.390874 10.3449C2.13478 3.39904 9.19422 -0.846674 16.2187 0.89084C23.1957 2.62696 27.4605 9.65492 25.7152 16.6481Z" fill="#BEBEBE"/>
<path d="M18.8031 11.6331C19.0617 9.89695 17.737 8.96211 15.9288 8.3528L16.5101 6.00458L15.089 5.65123L14.5077 7.93268L13.3451 7.67532L13.9264 5.39387L12.5052 5.04053L11.9239 7.38875L11.0199 7.16339L9.06355 6.68067L8.67649 8.19143L9.71053 8.44878C9.91118 8.47155 10.0948 8.57203 10.2216 8.72848C10.3484 8.88494 10.4083 9.0848 10.3882 9.28485L9.71053 11.9558C9.74267 11.9558 9.80834 11.9878 9.87262 11.9878C9.84048 11.9878 9.77481 11.9558 9.71053 11.9558L8.7743 15.6868C8.71002 15.8482 8.51579 16.1375 8.12872 16.0402C8.12872 16.0721 7.09468 15.7828 7.09468 15.7828L6.396 17.4243L8.26845 17.875L9.3025 18.1324L8.7212 20.4973L10.1423 20.8507L10.7236 18.5024L11.8415 18.7918L11.2602 21.14L12.6813 21.4934L13.2626 19.1285C15.7178 19.5792 17.5246 19.4178 18.3015 17.199C18.9163 15.4322 18.2693 14.4167 16.9768 13.7253C17.9466 13.5306 18.6257 12.9213 18.8185 11.6345L18.8031 11.6331ZM15.5403 16.2321C15.0876 17.9989 12.1168 17.0362 11.147 16.8108L11.9225 13.6599C12.8923 13.8853 15.9931 14.3555 15.5557 16.2335L15.5403 16.2321ZM15.9931 11.6331C15.606 13.2412 13.0865 12.4371 12.2789 12.2118L12.9776 9.35023C13.7852 9.57559 16.4011 9.92894 15.9819 11.6317L15.9931 11.6331Z" fill="#F8F8FC"/>
<path d="M38.2487 8.35008C39.3148 8.35008 40.205 8.54484 40.9945 8.89679C41.77 9.28213 42.4156 9.76485 42.9005 10.4075C43.4175 11.0502 43.7724 11.7903 44.0183 12.6584C44.2556 13.5612 44.3749 14.4907 44.3733 15.4239C44.3789 16.8909 44.0935 18.3446 43.5335 19.7016C43.0051 21.0073 42.2262 22.198 41.2404 23.2072C40.261 24.2055 39.099 25.0082 37.8169 25.5721C36.4616 26.1582 34.9976 26.454 33.52 26.4402H32.4859C32.0011 26.4402 31.4198 26.3762 30.7742 26.2788L28.7396 25.8935C28.041 25.7321 27.3507 25.4761 26.7051 25.1979L32.4231 1.30407L37.5262 0.5L35.4917 8.99C35.9444 8.79524 36.3636 8.63665 36.8164 8.53927C37.2784 8.40748 37.7569 8.3419 38.2375 8.34452L38.2487 8.35008ZM33.9532 22.4365C34.7287 22.4365 35.4386 22.2418 36.1191 21.8898C36.8034 21.505 37.4065 20.992 37.8951 20.3791C38.38 19.767 38.7671 19.0603 39.0577 18.2562C39.3484 17.4522 39.4769 16.6481 39.4769 15.78C39.4769 14.7186 39.3148 13.9159 38.9599 13.3039C38.605 12.7251 37.958 12.4038 37.0218 12.4038C36.7004 12.4038 36.3231 12.4678 35.827 12.5652C35.331 12.6625 34.8908 12.9185 34.5023 13.2607L32.3364 22.2654C32.465 22.2974 32.5949 22.2974 32.6914 22.3294C32.7878 22.3614 32.887 22.3614 33.0128 22.3934C33.1106 22.3934 33.2713 22.4254 33.3998 22.4254H33.949L33.9532 22.4365ZM49.7154 26.0535H44.8246L48.9468 8.73959H53.8571L49.7154 26.0535ZM52.0741 6.63066C51.4084 6.63949 50.7593 6.42375 50.2324 6.01857C49.6832 5.60123 49.394 4.98914 49.394 4.15447C49.394 3.70375 49.4918 3.25441 49.6846 2.86768C49.8644 2.47118 50.1165 2.11129 50.428 1.80626C50.7495 1.52275 51.1082 1.28407 51.4942 1.09679C51.9134 0.935421 52.3326 0.839432 52.7868 0.839432C53.4525 0.830603 54.1016 1.04634 54.6285 1.45152C55.1776 1.86886 55.4669 2.48095 55.4669 3.31562C55.4669 3.76635 55.3691 4.21568 55.1762 4.60241C54.9965 4.99891 54.7444 5.3588 54.4329 5.66383C54.1422 5.95318 53.7551 6.17854 53.3667 6.35939C52.9782 6.54024 52.559 6.61675 52.0741 6.61675V6.63066ZM58.147 4.44104L63.2837 3.63697L62.0233 8.75072H67.5149L66.513 12.785H61.0535L59.6003 18.8308C59.4823 19.2946 59.4066 19.7681 59.3739 20.2455C59.3432 20.6949 59.406 21.0496 59.536 21.3584C59.5991 21.5227 59.6945 21.6728 59.8167 21.7998C59.9388 21.9269 60.0852 22.0285 60.2473 22.0985C60.6022 22.2599 61.0857 22.3559 61.7005 22.3559C62.2175 22.3559 62.7346 22.2919 63.2376 22.1945C63.7444 22.0999 64.2416 21.9597 64.723 21.7758L65.0779 25.5387C64.3801 25.7847 63.668 25.9886 62.9456 26.1494C62.17 26.3442 61.2659 26.4068 60.1997 26.4068C58.6822 26.4068 57.5168 26.1814 56.6784 25.7321C55.84 25.2828 55.2573 24.6707 54.9038 23.8986C54.5502 23.1265 54.3867 22.2265 54.451 21.2277C54.4832 20.2302 54.6466 19.1688 54.9038 18.0281L58.147 4.44104ZM67.2885 19.1382C67.2908 17.7047 67.5312 16.2814 67.9998 14.9259C68.4614 13.6581 69.163 12.4903 70.0665 11.4857C70.9706 10.4882 72.0689 9.71894 73.3615 9.13745C74.654 8.55596 76.0751 8.2694 77.6583 8.2694C78.6602 8.2694 79.5308 8.36678 80.3077 8.55875C81.0847 8.75072 81.7931 8.97608 82.4401 9.29882L80.7605 13.1244C80.3077 12.9296 79.8564 12.8044 79.405 12.6417C78.9201 12.4803 78.3388 12.4163 77.6611 12.4163C76.0122 12.4163 74.7546 12.963 73.7849 14.0884C72.8151 15.2139 72.3316 16.6926 72.3316 18.5901C72.3316 19.703 72.5901 20.6156 73.075 21.2917C73.5599 21.9872 74.464 22.3211 75.7579 22.3211C76.3771 22.3238 76.9947 22.259 77.5996 22.1277C78.1406 22.0133 78.6703 21.8517 79.1829 21.645L79.5378 25.5679L77.5032 26.2106C76.7598 26.4054 75.8543 26.5 74.8203 26.5C73.4649 26.5 72.3009 26.3052 71.3646 25.9213C70.4727 25.5579 69.6686 25.0098 69.0059 24.3132C68.3862 23.6441 67.9326 22.8399 67.6812 21.965C67.4195 21.0445 67.2892 20.092 67.2941 19.1354L67.2885 19.1382ZM88.9951 26.4903C87.8325 26.4903 86.7985 26.2955 85.9586 25.9755C85.0867 25.6222 84.3754 25.1409 83.8263 24.4968C83.2636 23.8349 82.8355 23.0705 82.5659 22.246C82.2752 21.3779 82.1466 20.4125 82.1466 19.3844C82.1466 18.0656 82.373 16.7469 82.7922 15.4295C83.1983 14.1414 83.8449 12.9411 84.6982 11.8919C85.5366 10.8304 86.5707 9.96239 87.7668 9.3183C88.9616 8.64361 90.3519 8.32087 91.9337 8.32087C92.9683 8.3149 93.9959 8.48909 94.9702 8.83558C95.8422 9.18892 96.5534 9.67025 97.1026 10.3143C97.6652 10.9762 98.0933 11.7407 98.363 12.5652C98.6536 13.4332 98.7822 14.3987 98.7822 15.4267C98.7822 16.7455 98.5866 18.0643 98.1674 19.3816C97.7482 20.699 97.1333 21.8898 96.3256 22.9193C95.518 23.9807 94.4839 24.8167 93.257 25.4928C92.0302 26.1689 90.6076 26.4903 88.9951 26.4903ZM91.4503 12.4052C90.7664 12.4053 90.0998 12.6189 89.5443 13.0159C88.9951 13.4332 88.5424 13.9479 88.1553 14.592C87.7682 15.2361 87.5097 15.9108 87.3169 16.6829C87.124 17.455 87.0262 18.1616 87.0262 18.8391C87.0262 19.9325 87.2218 20.7867 87.5432 21.4127C87.8982 22.0248 88.5452 22.3447 89.4492 22.3447C90.1926 22.3447 90.8047 22.15 91.3552 21.7326C91.9058 21.3153 92.3571 20.8006 92.7442 20.1565C93.1313 19.5124 93.3898 18.8377 93.5826 18.0657C93.7711 17.3621 93.8688 16.6375 93.8733 15.9094C93.8733 14.816 93.7112 13.9619 93.3563 13.3358C93.0013 12.7098 92.3543 12.4038 91.4503 12.4038V12.4052ZM104.115 26.0381H99.2238L103.36 8.73681H108.27L104.115 26.0381ZM106.473 6.61536C105.808 6.62418 105.158 6.40845 104.632 6.00327C104.082 5.58593 103.793 4.97384 103.793 4.13917C103.793 3.68844 103.891 3.23911 104.084 2.85238C104.264 2.45588 104.516 2.09599 104.827 1.79096C105.149 1.50745 105.507 1.26877 105.893 1.08149C106.313 0.920119 106.732 0.82413 107.186 0.82413C107.852 0.815301 108.501 1.03104 109.028 1.43622C109.577 1.85356 109.866 2.46565 109.866 3.30032C109.866 3.75104 109.768 4.20037 109.575 4.5871C109.396 4.98361 109.144 5.3435 108.832 5.64853C108.511 5.93204 108.152 6.17072 107.766 6.358C107.377 6.55276 106.958 6.61536 106.473 6.61536ZM111.8 9.50888L113.027 9.12354L114.544 8.7382C115.162 8.60061 115.788 8.50395 116.418 8.44885L118.777 8.32087C121.362 8.32087 123.137 9.06094 124.106 10.5717C125.076 12.0505 125.269 14.1093 124.624 16.6815L122.363 26.0075H117.452L119.618 16.8749L119.94 15.2027C120.004 14.656 120.004 14.2053 119.907 13.788C119.828 13.3934 119.61 13.0399 119.293 12.7905C118.968 12.5332 118.485 12.4052 117.807 12.4052C117.162 12.4052 116.515 12.4692 115.869 12.5999L112.655 25.9783H107.745L111.8 9.50888Z" fill="#BEBEBE"/>
</svg>
