<svg width="130" height="21" viewBox="0 0 130 21" fill="none" xmlns="http://www.w3.org/2000/svg">
<g clip-path="url(#clip0_1_87664)">
<path d="M11.0751 0.393555H23.2461C23.2387 0.553333 23.1831 0.707214 23.0864 0.835208C22.6744 1.53654 22.3036 2.26649 21.8988 2.96782C21.3261 3.97483 20.7904 5.00024 20.2085 6.00316C19.8397 6.72494 19.4236 7.42422 19.0301 8.13373C16.6651 8.13373 14.3001 8.13373 11.9351 8.13373C11.8115 8.13373 11.689 8.13987 11.5654 8.14702C11.4623 8.41692 11.2914 8.65308 11.1533 8.90663C10.9731 9.19697 10.8268 9.50674 10.6486 9.79709C10.4601 10.1876 10.1995 10.5373 10.01 10.9268C9.61857 11.5862 9.2529 12.2558 8.86972 12.9224C8.47007 13.604 8.07934 14.2951 7.69753 14.9957C7.53595 15.244 7.38709 15.5003 7.25152 15.7635C6.45118 17.1457 5.67658 18.5402 4.87521 19.9214C4.80723 20.0698 4.7177 20.2076 4.60946 20.3303C3.23949 20.3211 1.86953 20.3303 0.499572 20.3303C0.33084 20.3335 0.163109 20.3568 0 20.3998C0 20.0236 0.253391 19.722 0.424379 19.4061C0.630388 18.9818 0.90541 18.5882 1.11245 18.1629C2.75434 15.2472 4.37873 12.3213 6.01547 9.40349C6.38628 8.76963 6.70457 8.12249 7.07744 7.5009C7.54303 6.68302 7.97668 5.84675 8.46183 5.03807C8.61633 4.69967 8.8244 4.3899 8.99436 4.05969C9.59797 2.99338 10.1902 1.92094 10.7918 0.854632C10.8632 0.688106 10.9586 0.532783 11.0751 0.393555Z" fill="#BEBEBE"/>
<path d="M25.1785 4.68634C25.9891 3.28061 26.772 1.85955 27.594 0.459961H31.9902C32.0542 0.463176 32.1178 0.473114 32.1797 0.489609C32.0335 0.709413 31.9109 0.942508 31.7821 1.17151C30.7219 3.06013 29.6647 4.94976 28.6106 6.84042C28.1677 7.61025 27.7557 8.39745 27.3066 9.16319L27.2623 9.17852L27.254 9.27463C25.1871 12.9551 23.127 16.6382 21.0738 20.3241C17.038 20.3282 13.002 20.3282 8.96558 20.3241C9.19528 19.8477 9.46721 19.3928 9.72266 18.9297C10.8722 16.8318 12.0516 14.7524 13.1846 12.6545C15.6643 12.6504 18.144 12.6504 20.6236 12.6545C22.1553 10.0066 23.654 7.3383 25.1744 4.68634H25.1785Z" fill="#BEBEBE"/>
<path d="M70.5488 0.405762V20.5664H74.0685V6.38955L80.4888 15.7266L86.8575 6.1677V20.5664H90.4802V0.405762H86.5836L80.5145 9.71217L74.3775 0.405762H70.5488Z" fill="#BEBEBE"/>
<path d="M54.0857 5.60547H56.3858V20.7362H54.0857V5.60547Z" fill="#BEBEBE"/>
<path d="M53.8879 0H56.5836V2.53848H53.8879V0Z" fill="#BEBEBE"/>
<path d="M60.781 1.26978H63.1841V5.60554H67.9223V7.71873H63.1841V16.7072C63.1799 17.0535 63.2609 17.3957 63.42 17.704C63.8268 18.4707 64.9321 19.3806 67.9223 18.3174V20.2762C67.9223 20.2762 65.1927 21.8097 62.7206 20.4132C62.7206 20.4132 61.4927 19.8959 60.9767 18.1497C60.8426 17.682 60.7767 17.1976 60.781 16.7113V7.68499L58.7549 7.71873V5.60554H60.7975L60.781 1.26978Z" fill="#BEBEBE"/>
<path d="M94.1885 0.405762V20.7024H109.467V17.4309H97.9142V12.0462H108.094V8.8258H97.8966V3.69771H109.348V0.405762H94.1885Z" fill="#BEBEBE"/>
<path d="M110.901 0.405762H115.253L120.249 7.53151L125.205 0.405762H129.557L122.45 10.3041L130 20.685H125.416L120.266 13.1033L114.867 20.7024H110.515L117.957 10.3941L110.901 0.405762Z" fill="#BEBEBE"/>
<path d="M47.0464 10.1723C47.0464 10.1723 50.4116 8.91172 50.2056 5.2824C50.2056 5.2824 50.1777 1.79211 46.2183 0.714557C45.5599 0.539481 44.8809 0.452831 44.1994 0.456926H34.7034L34.7291 20.6176H44.9523C44.9523 20.6176 50.9348 20.4898 51.3561 15.1992C51.3561 15.1992 51.7846 11.5013 47.0464 10.1723ZM37.158 2.53842H43.2188C47.9734 2.52206 47.8365 5.84469 47.8365 5.84469C47.9075 9.63554 43.5442 9.55887 43.5442 9.55887H37.158V2.53842ZM44.5743 18.487H37.158V11.4676H44.2488C49.0035 11.4502 48.8665 14.7728 48.8665 14.7728C48.9376 18.5637 44.5743 18.487 44.5743 18.487Z" fill="#BEBEBE"/>
</g>
<defs>
<clipPath id="clip0_1_87664">
<rect width="130" height="21" fill="white"/>
</clipPath>
</defs>
</svg>
