<svg width="141" height="25" viewBox="0 0 141 25" fill="none" xmlns="http://www.w3.org/2000/svg">
<path d="M28.7567 6.97878C23.67 6.97878 19.6975 10.8384 19.6975 16.004C19.6975 21.1695 23.5708 24.9942 28.7567 24.9942C33.9425 24.9942 37.88 21.1054 37.88 15.9748C37.88 10.8734 34.0067 6.97878 28.7567 6.97878ZM28.7917 21.2745C25.8925 21.2745 23.775 19.024 23.775 16.004C23.775 12.9548 25.8575 10.7043 28.7567 10.7043C31.685 10.7043 33.8083 12.9897 33.8083 16.0098C33.8083 19.024 31.685 21.2745 28.7917 21.2745V21.2745ZM38.9942 10.9083H41.52V24.6677H45.5625V7.3111H38.9942V10.9083ZM9.52417 10.7043C11.6475 10.7043 13.3333 12.0103 13.9692 13.9576H18.2508C17.475 9.80061 14.0392 6.97878 9.55917 6.97878C4.4725 6.97878 0.5 10.8384 0.5 16.004C0.5 21.1754 4.37333 25 9.55917 25C13.9342 25 17.44 22.1782 18.2158 17.9862H13.9692C13.6941 18.9404 13.1141 19.7783 12.3178 20.3721C11.5215 20.9658 10.5526 21.2828 9.55917 21.2745C6.63083 21.2745 4.57167 19.024 4.57167 16.004C4.57167 12.9548 6.59583 10.7043 9.53 10.7043H9.52417ZM115.778 14.3307L112.815 13.8934C111.403 13.6894 110.394 13.2229 110.394 12.1152C110.394 10.9083 111.707 10.3078 113.486 10.3078C115.446 10.3078 116.694 11.1416 116.957 12.5175H120.865C120.428 9.02519 117.732 6.97878 113.591 6.97878C109.315 6.97878 106.486 9.16511 106.486 12.2493C106.486 15.1994 108.335 16.9135 112.074 17.4499L115.038 17.8871C116.49 18.0854 117.295 18.6567 117.295 19.7295C117.295 21.1054 115.883 21.6768 113.929 21.6768C111.538 21.6768 110.19 20.7031 109.986 19.2281H106.013C106.387 22.6154 109.047 25 113.888 25C118.304 25 121.238 22.9827 121.238 19.5313C121.238 16.4412 119.115 14.8321 115.778 14.3307V14.3307ZM43.5383 0.169078C43.1984 0.15713 42.8597 0.214551 42.5427 0.337834C42.2258 0.461116 41.9373 0.647668 41.6949 0.886108C41.4526 1.12455 41.2613 1.40986 41.133 1.72464C41.0046 2.03941 40.9418 2.37703 40.9483 2.71688C40.9483 4.19776 42.0567 5.27052 43.5383 5.27052C43.8792 5.28332 44.2191 5.22633 44.5371 5.10306C44.8551 4.97978 45.1446 4.79283 45.3877 4.55367C45.6308 4.31452 45.8224 4.02822 45.9508 3.71236C46.0792 3.39649 46.1416 3.05773 46.1342 2.71688C46.1408 2.37652 46.0778 2.0384 45.949 1.72322C45.8203 1.40805 45.6286 1.12245 45.3855 0.883928C45.1425 0.645404 44.8534 0.458973 44.5357 0.336055C44.2181 0.213136 43.8787 0.156318 43.5383 0.169078V0.169078ZM102.846 13.2579C102.846 9.49744 100.559 6.98461 95.7058 6.98461C91.1267 6.98461 88.5658 9.29921 88.0642 12.8556H92.0717C92.2758 11.4797 93.355 10.337 95.6417 10.337C97.695 10.337 98.7042 11.2407 98.7042 12.3484C98.7042 13.7943 96.855 14.1616 94.5625 14.3948C91.465 14.733 87.6208 15.8057 87.6208 19.8344C87.6208 22.9536 89.9542 24.965 93.6525 24.965C96.5517 24.965 98.3717 23.7582 99.2817 21.8458C99.4158 23.5541 100.693 24.6618 102.478 24.6618H104.835V21.0704H102.852V13.2579H102.846ZM98.8792 17.6189C98.8792 19.9335 96.855 21.6418 94.3933 21.6418C92.8767 21.6418 91.5933 21.0005 91.5933 19.6595C91.5933 17.9513 93.6525 17.4848 95.5367 17.2808C97.3567 17.1175 98.3658 16.7153 98.8733 15.9398L98.8792 17.6189ZM77.4183 6.97878C75.1667 6.97878 73.2767 7.92327 71.935 9.49743V0H67.8925V24.6618H71.8592V22.3822C73.2125 24.0263 75.1258 25 77.4183 25C82.2717 25 85.9408 21.1754 85.9408 16.004C85.9408 10.8384 82.2075 6.97878 77.4242 6.97878H77.4183ZM76.8175 21.2745C73.9183 21.2745 71.8008 19.024 71.8008 16.004C71.8008 12.9897 73.9533 10.7043 76.8467 10.7043C79.7808 10.7043 81.8342 12.9548 81.8342 16.0098C81.8342 19.024 79.7108 21.2745 76.8175 21.2745V21.2745ZM58.2267 6.97878C55.6017 6.97878 53.8808 8.05154 52.8658 9.56157V7.31693H48.8583V24.6618H52.9008V15.2344C52.9008 12.5816 54.5867 10.7043 57.0775 10.7043C59.3992 10.7043 60.8517 12.3484 60.8517 14.7271V24.6618H64.8883V14.4298C64.8883 10.0688 62.6367 6.97878 58.2267 6.97878V6.97878ZM140.5 15.4326C140.5 10.4711 136.86 6.97878 131.983 6.97878C126.792 6.97878 122.988 10.8734 122.988 16.004C122.988 21.4086 127.06 25 132.048 25C136.259 25 139.555 22.5163 140.401 18.9949H136.189C135.583 20.534 134.101 21.4086 132.112 21.4086C129.516 21.4086 127.562 19.7994 127.13 16.9776H140.5V15.4384V15.4326ZM127.363 14.0916C128.005 11.6779 129.825 10.5061 131.913 10.5061C134.2 10.5061 135.956 11.812 136.358 14.0916H127.363Z" fill="#BEBEBE"/>
</svg>
